<svg xmlns="http://www.w3.org/2000/svg" viewBox="0 0 32 32" fill="none">
  <defs>
    <linearGradient id="heartGrad" x1="0.15" y1="0.1" x2="0.9" y2="0.95">
      <stop offset="0%" stop-color="#ffffff"/>
      <stop offset="45%" stop-color="#ff6ba6"/>
      <stop offset="100%" stop-color="#a855f7"/>
    </linearGradient>
    <radialGradient id="heartShine" cx="0.3" cy="0.25" r="0.5">
      <stop offset="0%" stop-color="#ffffff" stop-opacity="0.7"/>
      <stop offset="100%" stop-color="#ffffff" stop-opacity="0"/>
    </radialGradient>
  </defs>
  <!-- heart body -->
  <path d="M16 28C16 28 4 20 4 11.5C4 7.5 7.2 4.5 11 4.5C13 4.5 14.8 5.5 16 7.2C17.2 5.5 19 4.5 21 4.5C24.8 4.5 28 7.5 28 11.5C28 20 16 28 16 28Z"
        fill="url(#heartGrad)" stroke="#ff6ba6" stroke-width="0.5"/>
  <!-- soft highlight -->
  <path d="M16 28C16 28 4 20 4 11.5C4 7.5 7.2 4.5 11 4.5C13 4.5 14.8 5.5 16 7.2C17.2 5.5 19 4.5 21 4.5C24.8 4.5 28 7.5 28 11.5C28 20 16 28 16 28Z"
        fill="url(#heartShine)"/>
  <!-- sparkles -->
  <circle cx="11.3" cy="9.5" r="1.3" fill="white" opacity="0.85"/>
  <circle cx="22" cy="17" r="0.7" fill="white" opacity="0.75"/>
  <g transform="translate(24 7)" opacity="0.9">
    <path d="M0 -2.5 L0.5 -0.5 L2.5 0 L0.5 0.5 L0 2.5 L-0.5 0.5 L-2.5 0 L-0.5 -0.5 Z" fill="#fff0f8"/>
  </g>
</svg>
